<?xml version="1.0" standalone="no"?>
<!DOCTYPE svg PUBLIC "-//W3C//DTD SVG 20010904//EN"
 "http://www.w3.org/TR/2001/REC-SVG-20010904/DTD/svg10.dtd">
<svg version="1.0" xmlns="http://www.w3.org/2000/svg"
 width="922.000000pt" height="146.000000pt" viewBox="0 0 922.000000 146.000000"
 preserveAspectRatio="xMidYMid meet">

<g transform="translate(0.000000,146.000000) scale(0.100000,-0.100000)"
fill="#000000" stroke="none">
<path d="M670 1309 c-112 -29 -272 -34 -415 -15 -66 9 -130 19 -142 22 l-23 6
0 -262 0 -261 54 6 53 7 5 -45 c12 -100 103 -229 199 -277 21 -11 39 -24 39
-28 0 -4 -9 -31 -20 -61 -12 -29 -20 -57 -18 -61 2 -4 39 4 83 18 75 24 93 26
275 26 172 0 202 -2 253 -20 l57 -21 0 264 0 264 -47 -3 -46 -3 -14 63 c-25
107 -95 194 -218 267 -17 10 -17 14 -1 67 9 31 16 59 16 62 0 8 0 8 -90 -15z
m-100 -107 c0 -4 -20 -18 -44 -32 -38 -20 -47 -22 -61 -10 -22 18 -7 30 51 39
27 5 50 9 52 10 1 0 2 -2 2 -7z m33 -57 c-20 -25 -40 -45 -44 -45 -4 0 -17 8
-30 19 l-23 19 49 25 c79 41 93 36 48 -18z m87 8 c-27 -89 -29 -92 -61 -81
-44 15 -44 25 -1 68 48 48 75 54 62 13z m-231 -33 c-5 -8 -22 -31 -39 -49
l-30 -35 -29 28 c-16 16 -27 34 -25 40 3 7 23 24 46 38 39 26 41 26 63 10 16
-12 20 -21 14 -32z m291 -37 c0 -29 -2 -53 -4 -53 -1 0 -18 5 -35 11 -36 13
-36 20 -5 94 15 37 17 38 30 20 8 -10 14 -42 14 -72z m70 -15 c12 -27 20 -52
17 -54 -2 -2 -18 -1 -35 2 -30 6 -30 8 -34 69 -3 59 -2 62 14 49 9 -9 26 -38
38 -66z m62 -12 c34 -47 35 -56 5 -56 -18 0 -26 11 -43 60 -24 67 -13 66 38
-4z m-359 43 c12 -7 23 -13 25 -14 3 -3 -45 -104 -53 -113 -5 -6 -61 26 -73
41 -9 11 -5 23 19 55 32 44 46 49 82 31z m92 -43 l34 -15 -20 -60 c-12 -35
-27 -61 -35 -61 -16 0 -84 32 -84 39 0 10 60 111 66 111 2 0 20 -6 39 -14z
m103 -37 c31 -10 32 -13 26 -52 -4 -23 -11 -53 -16 -66 -9 -24 -21 -24 -82 -1
l-24 9 20 53 c29 78 25 75 76 57z m125 -39 c5 -4 7 -31 5 -61 l-3 -54 -40 3
c-62 4 -65 7 -55 44 4 18 11 46 14 61 6 26 10 28 39 22 18 -4 36 -10 40 -15z
m95 -33 c27 -88 28 -87 -26 -87 l-49 0 1 60 c1 55 3 59 26 62 34 5 37 3 48
-35z m-632 -196 c-1 -57 -2 -60 -29 -64 -32 -4 -44 15 -54 86 l-6 37 45 0 45
0 -1 -59z m114 44 c3 -2 2 -32 -4 -65 l-10 -62 -35 6 c-19 3 -38 11 -43 18 -9
15 -10 64 -1 97 5 21 10 22 46 17 22 -4 43 -9 47 -11z m107 -26 l21 -8 -21
-58 c-11 -32 -22 -60 -24 -62 -1 -2 -21 1 -44 8 -45 14 -44 6 -18 104 10 39
18 41 86 16z m126 -48 c11 -11 -39 -110 -58 -117 -7 -3 -27 2 -44 10 l-31 16
19 48 c10 26 21 55 24 65 6 16 9 16 44 2 21 -9 42 -20 46 -24z m94 -48 c21
-14 21 -14 2 -47 -10 -18 -30 -43 -43 -55 -25 -24 -25 -24 -84 15 -2 1 11 29
29 62 36 65 35 64 96 25z m-450 -11 c6 -4 20 -31 31 -60 17 -44 18 -51 5 -40
-21 17 -73 88 -73 100 0 10 21 10 37 0z m99 -16 c1 0 4 -29 6 -63 4 -59 3 -62
-13 -47 -18 16 -41 60 -54 103 -7 22 -5 23 27 16 18 -4 34 -8 34 -9z m63 -17
c17 -6 31 -13 31 -17 0 -17 -35 -112 -41 -112 -16 0 -29 40 -29 89 0 28 2 51
4 51 1 0 17 -5 35 -11z m365 -18 c16 -16 25 -34 22 -40 -4 -6 -28 -25 -53 -42
l-45 -31 -20 20 -20 20 38 51 c21 28 41 51 44 51 4 0 19 -13 34 -29z m-258
-25 c18 -14 18 -16 -22 -56 -23 -23 -48 -40 -56 -38 -13 3 -13 10 5 56 21 55
37 64 73 38z m88 -57 c-9 -15 -85 -49 -110 -49 -18 0 -15 6 20 43 40 42 42 43
69 30 15 -8 25 -19 21 -24z m56 -24 c10 -12 10 -16 -1 -20 -21 -8 -114 -24
-117 -20 -4 4 80 53 94 54 6 1 17 -6 24 -14z"/>
<path d="M1270 1293 c-32 -12 -50 -37 -50 -69 0 -34 16 -51 79 -86 32 -18 40
-45 19 -66 -19 -19 -55 -14 -78 10 l-20 22 0 -27 c0 -35 38 -45 94 -26 76 26
76 105 1 141 -48 23 -64 50 -45 73 16 19 45 19 64 -1 15 -14 17 -14 22 1 4 9
4 18 1 21 -8 8 -71 14 -87 7z"/>
<path d="M1440 1227 c33 -62 40 -83 40 -130 0 -56 0 -57 29 -57 l30 0 -6 53
c-5 49 -2 60 37 130 32 60 38 77 26 77 -10 0 -26 -22 -41 -56 -14 -31 -29 -53
-35 -49 -5 3 -20 28 -31 56 -20 45 -24 49 -55 49 l-35 0 41 -73z"/>
<path d="M1661 1208 c-7 -51 -16 -110 -21 -130 -7 -33 -6 -38 11 -38 16 0 19
8 20 48 0 26 3 65 7 86 l7 39 40 -86 c22 -47 42 -86 45 -87 3 0 25 39 49 88
24 48 45 83 47 77 1 -5 5 -45 9 -87 l7 -78 30 0 c23 0 28 4 24 18 -2 9 -10 68
-17 130 -9 80 -16 112 -26 112 -7 0 -34 -42 -60 -92 l-46 -93 -44 93 c-24 50
-49 92 -57 92 -9 0 -17 -27 -25 -92z"/>
<path d="M1985 1170 l0 -130 52 0 c28 0 63 4 77 10 52 19 59 90 11 112 l-24
11 24 19 c32 25 33 71 3 92 -14 10 -44 16 -83 16 l-60 0 0 -130z m103 98 c7
-7 12 -24 12 -38 0 -30 -17 -50 -42 -50 -15 0 -18 9 -18 50 0 41 3 50 18 50
10 0 23 -5 30 -12z m0 -120 c7 -7 12 -24 12 -38 0 -30 -17 -50 -42 -50 -15 0
-18 9 -18 50 0 41 3 50 18 50 10 0 23 -5 30 -12z"/>
<path d="M2215 1170 l0 -130 28 0 27 0 0 130 0 130 -27 0 -28 0 0 -130z"/>
<path d="M2390 1283 c-40 -21 -80 -75 -80 -110 0 -37 26 -90 53 -108 39 -25
116 -29 157 -8 40 21 80 75 80 110 0 37 -26 90 -53 108 -39 25 -116 29 -157 8z
m115 -26 c54 -46 37 -169 -27 -191 -18 -6 -36 -5 -57 4 -58 23 -67 135 -16
186 30 30 66 31 100 1z"/>
<path d="M2690 1293 c-32 -12 -50 -37 -50 -69 0 -34 16 -51 79 -86 32 -18 40
-45 19 -66 -19 -19 -55 -14 -78 10 l-20 22 0 -27 c0 -35 38 -45 94 -26 76 26
76 105 1 141 -48 23 -64 50 -45 73 16 19 45 19 64 -1 15 -14 17 -14 22 1 4 9
4 18 1 21 -8 8 -71 14 -87 7z"/>
<path d="M2835 1170 l0 -130 28 0 27 0 0 130 0 130 -27 0 -28 0 0 -130z"/>
<path d="M3000 1293 c-32 -12 -50 -37 -50 -69 0 -34 16 -51 79 -86 32 -18 40
-45 19 -66 -19 -19 -55 -14 -78 10 l-20 22 0 -27 c0 -35 38 -45 94 -26 76 26
76 105 1 141 -48 23 -64 50 -45 73 16 19 45 19 64 -1 15 -14 17 -14 22 1 4 9
4 18 1 21 -8 8 -71 14 -87 7z"/>
<path d="M3255 1170 l0 -130 28 0 27 0 0 130 0 130 -27 0 -28 0 0 -130z"/>
<path d="M3382 1170 c-2 -109 0 -130 13 -130 11 0 15 19 17 92 l3 92 79 -89
c44 -50 86 -91 93 -93 9 -3 13 11 13 51 0 30 3 88 6 130 6 67 5 77 -9 77 -14
0 -17 -15 -19 -89 l-3 -88 -79 88 c-44 49 -87 89 -95 89 -14 0 -16 -21 -19
-130z"/>
<path d="M3710 1293 c-32 -12 -50 -37 -50 -69 0 -34 16 -51 79 -86 32 -18 40
-45 19 -66 -19 -19 -55 -14 -78 10 l-20 22 0 -27 c0 -35 38 -45 94 -26 76 26
76 105 1 141 -48 23 -64 50 -45 73 16 19 45 19 64 -1 15 -14 17 -14 22 1 4 9
4 18 1 21 -8 8 -71 14 -87 7z"/>
<path d="M3830 1285 c0 -10 11 -15 35 -15 l35 0 0 -115 0 -115 28 0 27 0 -4
115 -3 115 36 0 c25 0 36 4 36 15 0 12 -17 15 -95 15 -78 0 -95 -3 -95 -15z"/>
<path d="M4065 1170 l0 -130 28 0 27 0 0 130 0 130 -27 0 -28 0 0 -130z"/>
<path d="M4170 1285 c0 -10 11 -15 35 -15 l35 0 0 -115 0 -115 28 0 27 0 -4
115 -3 115 36 0 c25 0 36 4 36 15 0 12 -17 15 -95 15 -78 0 -95 -3 -95 -15z"/>
<path d="M4410 1197 c0 -94 2 -105 23 -124 53 -50 158 -37 183 23 19 46 19
204 0 204 -11 0 -15 -22 -18 -101 -3 -93 -5 -102 -27 -121 -29 -23 -67 -18
-93 14 -14 16 -18 39 -18 114 0 94 0 94 -25 94 l-25 0 0 -103z"/>
<path d="M4670 1285 c0 -10 11 -15 35 -15 l35 0 0 -115 0 -115 28 0 27 0 -4
115 -3 115 36 0 c25 0 36 4 36 15 0 12 -17 15 -95 15 -78 0 -95 -3 -95 -15z"/>
<path d="M4900 1170 l0 -130 70 0 c56 0 70 3 70 15 0 11 -12 15 -45 15 l-45 0
0 45 0 45 45 0 c34 0 45 4 45 15 0 12 -10 15 -42 13 l-43 -3 0 40 c0 40 0 40
43 43 28 2 42 8 42 18 0 11 -16 14 -70 14 l-70 0 0 -130z"/>
<path d="M5250 1283 c-40 -21 -80 -75 -80 -110 0 -37 26 -90 53 -108 39 -25
116 -29 157 -8 40 21 80 75 80 110 0 37 -26 90 -53 108 -39 25 -116 29 -157 8z
m115 -26 c54 -46 37 -169 -27 -191 -18 -6 -36 -5 -57 4 -58 23 -67 135 -16
186 30 30 66 31 100 1z"/>
<path d="M5500 1170 l0 -130 29 0 29 0 -5 60 -6 60 47 0 c34 0 46 4 46 15 0
12 -10 15 -42 13 l-43 -3 0 40 c0 40 0 40 43 43 28 2 42 8 42 18 0 11 -16 14
-70 14 l-70 0 0 -130z"/>
<path d="M5740 1285 c0 -10 11 -15 35 -15 l35 0 0 -115 0 -115 28 0 27 0 -4
115 -3 115 36 0 c25 0 36 4 36 15 0 12 -17 15 -95 15 -78 0 -95 -3 -95 -15z"/>
<path d="M5970 1170 l0 -130 70 0 c56 0 70 3 70 15 0 11 -12 15 -45 15 l-45 0
0 45 0 45 45 0 c34 0 45 4 45 15 0 12 -10 15 -42 13 l-43 -3 0 40 c0 40 0 40
43 43 28 2 42 8 42 18 0 11 -16 14 -70 14 l-70 0 0 -130z"/>
<path d="M6204 1281 c-44 -20 -74 -67 -74 -119 0 -44 39 -95 85 -110 43 -14
110 -11 128 7 17 17 1 24 -23 11 -36 -19 -88 -4 -110 33 -34 56 -19 137 31
162 36 19 54 19 84 -1 24 -15 25 -15 25 4 0 35 -81 42 -146 13z"/>
<path d="M6405 1170 l0 -130 28 0 c26 0 27 1 27 60 l0 60 61 0 62 0 -6 -60 -5
-60 29 0 29 0 0 130 0 130 -29 0 -30 0 6 -55 6 -55 -62 0 -61 0 0 55 c0 53 -1
55 -27 55 l-28 0 0 -130z"/>
<path d="M6702 1170 c-2 -109 0 -130 13 -130 11 0 15 19 17 92 l3 92 79 -89
c44 -50 86 -91 93 -93 9 -3 13 11 13 51 0 30 3 88 6 130 6 67 5 77 -9 77 -14
0 -17 -15 -19 -89 l-3 -88 -79 88 c-44 49 -87 89 -95 89 -14 0 -16 -21 -19
-130z"/>
<path d="M7050 1283 c-40 -21 -80 -75 -80 -110 0 -37 26 -90 53 -108 39 -25
116 -29 157 -8 40 21 80 75 80 110 0 37 -26 90 -53 108 -39 25 -116 29 -157 8z
m115 -26 c54 -46 37 -169 -27 -191 -18 -6 -36 -5 -57 4 -58 23 -67 135 -16
186 30 30 66 31 100 1z"/>
<path d="M7305 1170 l0 -130 68 0 c53 0 67 3 67 15 0 11 -11 15 -40 15 l-40 0
0 115 0 115 -27 0 -28 0 0 -130z"/>
<path d="M7550 1283 c-40 -21 -80 -75 -80 -110 0 -37 26 -90 53 -108 39 -25
116 -29 157 -8 40 21 80 75 80 110 0 37 -26 90 -53 108 -39 25 -116 29 -157 8z
m115 -26 c54 -46 37 -169 -27 -191 -18 -6 -36 -5 -57 4 -58 23 -67 135 -16
186 30 30 66 31 100 1z"/>
<path d="M7884 1289 c-89 -26 -125 -147 -61 -207 32 -30 103 -46 157 -35 l45
9 3 47 c3 44 2 47 -22 47 -22 0 -25 -5 -28 -42 -3 -40 -5 -43 -36 -46 -48 -5
-92 42 -92 98 0 51 21 93 55 108 34 16 54 15 89 -3 31 -17 42 -14 33 8 -9 25
-85 33 -143 16z"/>
<path d="M8110 1227 c33 -62 40 -83 40 -130 0 -56 0 -57 29 -57 l30 0 -6 53
c-5 49 -2 60 37 130 32 60 38 77 26 77 -10 0 -26 -22 -41 -56 -14 -31 -29 -53
-35 -49 -5 3 -20 28 -31 56 -20 45 -24 49 -55 49 l-35 0 41 -73z"/>
<path d="M8461 1260 c-54 -74 -51 -172 6 -240 33 -40 38 -34 13 15 -27 53 -27
154 0 214 27 58 19 63 -19 11z"/>
<path d="M8590 1293 c-32 -12 -50 -37 -50 -69 0 -34 16 -51 79 -86 32 -18 40
-45 19 -66 -19 -19 -55 -14 -78 10 l-20 22 0 -27 c0 -35 38 -45 94 -26 76 26
76 105 1 141 -48 23 -64 50 -45 73 16 19 45 19 64 -1 15 -14 17 -14 22 1 4 9
4 18 1 21 -8 8 -71 14 -87 7z"/>
<path d="M8745 1170 l0 -130 28 0 27 0 0 130 0 130 -27 0 -28 0 0 -130z"/>
<path d="M8840 1285 c0 -10 11 -15 35 -15 l35 0 0 -115 0 -115 28 0 27 0 -4
115 -3 115 36 0 c25 0 36 4 36 15 0 12 -17 15 -95 15 -78 0 -95 -3 -95 -15z"/>
<path d="M9050 1299 c0 -4 9 -26 20 -50 27 -60 27 -161 0 -214 -25 -49 -25
-53 1 -29 72 63 76 186 10 264 -17 19 -30 32 -31 29z"/>
<path d="M2882 848 c-7 -7 -12 -24 -12 -39 0 -15 -6 -30 -12 -33 -10 -5 -10
-7 0 -12 8 -4 12 -28 12 -70 0 -50 3 -64 15 -64 12 0 15 14 15 65 0 58 2 65
20 65 11 0 20 5 20 10 0 6 -9 10 -20 10 -16 0 -20 7 -20 30 0 20 5 30 15 30 8
0 15 5 15 10 0 14 -33 13 -48 -2z"/>
<path d="M3580 745 c0 -70 4 -115 10 -115 6 0 10 5 10 10 0 7 6 7 19 0 47 -24
91 7 91 65 0 49 -31 79 -76 72 l-34 -6 0 45 c0 24 -4 44 -10 44 -6 0 -10 -45
-10 -115z m90 0 c25 -30 8 -95 -26 -95 -20 0 -44 29 -44 55 0 44 45 70 70 40z"/>
<path d="M5790 750 c0 -88 3 -112 15 -116 22 -9 41 7 21 18 -13 7 -16 27 -16
108 0 60 -4 100 -10 100 -6 0 -10 -43 -10 -110z"/>
<path d="M5934 825 c-27 -66 -10 -235 25 -235 6 0 4 17 -4 41 -8 23 -15 65
-15 94 0 29 7 71 15 94 17 50 0 56 -21 6z"/>
<path d="M6990 816 l0 -45 -34 6 c-66 10 -103 -74 -56 -125 23 -24 41 -27 71
-12 13 7 19 7 19 0 0 -5 5 -10 10 -10 6 0 10 45 10 115 0 70 -4 115 -10 115
-5 0 -10 -20 -10 -44z m-15 -72 c20 -21 16 -73 -7 -88 -26 -16 -52 4 -56 43
-5 54 29 78 63 45z"/>
<path d="M8335 819 c8 -23 15 -65 15 -94 0 -29 -7 -71 -15 -94 -17 -50 0 -56
21 -6 27 66 10 235 -25 235 -6 0 -4 -17 4 -41z"/>
<path d="M1271 826 c-89 -49 -51 -196 50 -196 25 0 59 17 59 31 0 6 -7 6 -19
-1 -34 -18 -68 -12 -90 16 -57 73 12 175 90 134 12 -7 19 -7 19 -1 0 29 -69
39 -109 17z"/>
<path d="M1930 825 c0 -8 7 -15 15 -15 8 0 15 7 15 15 0 8 -7 15 -15 15 -8 0
-15 -7 -15 -15z"/>
<path d="M3042 824 c-38 -26 -26 -65 28 -90 64 -31 73 -41 59 -65 -8 -16 -18
-20 -42 -17 -18 3 -40 8 -49 13 -13 5 -18 3 -18 -8 0 -21 61 -33 103 -20 28 7
32 14 35 46 3 37 2 38 -52 62 -41 18 -56 30 -56 45 0 25 42 37 76 21 19 -8 24
-8 24 3 0 27 -74 34 -108 10z"/>
<path d="M3740 825 c0 -8 5 -15 10 -15 6 0 10 7 10 15 0 8 -4 15 -10 15 -5 0
-10 -7 -10 -15z"/>
<path d="M4080 825 c0 -8 5 -15 10 -15 6 0 10 7 10 15 0 8 -4 15 -10 15 -5 0
-10 -7 -10 -15z"/>
<path d="M4320 735 c0 -87 3 -105 15 -105 12 0 15 18 15 105 0 87 -3 105 -15
105 -12 0 -15 -18 -15 -105z"/>
<path d="M5270 825 c0 -8 7 -15 15 -15 8 0 15 7 15 15 0 8 -7 15 -15 15 -8 0
-15 -7 -15 -15z"/>
<path d="M6000 735 l0 -107 62 4 c77 6 108 35 108 103 0 68 -31 97 -108 103
l-62 4 0 -107z m120 65 c14 -14 20 -33 20 -65 0 -57 -25 -85 -75 -85 l-35 0 0
85 0 85 35 0 c22 0 43 -8 55 -20z"/>
<path d="M7120 756 c0 -79 2 -86 26 -105 15 -12 39 -21 54 -21 15 0 39 9 54
21 24 19 26 26 26 105 0 49 -4 84 -10 84 -6 0 -10 -29 -10 -67 0 -90 -15 -118
-60 -118 -45 0 -60 28 -60 118 0 38 -4 67 -10 67 -6 0 -10 -35 -10 -84z"/>
<path d="M7480 825 c0 -8 5 -15 10 -15 6 0 10 7 10 15 0 8 -4 15 -10 15 -5 0
-10 -7 -10 -15z"/>
<path d="M8030 825 c0 -8 7 -15 15 -15 8 0 15 7 15 15 0 8 -7 15 -15 15 -8 0
-15 -7 -15 -15z"/>
<path d="M8530 735 c0 -87 3 -105 15 -105 10 0 15 11 15 35 0 33 2 35 35 35
44 0 75 29 75 70 0 46 -31 70 -90 70 l-50 0 0 -105z m98 73 c7 -7 12 -24 12
-38 0 -34 -17 -50 -52 -50 -27 0 -28 2 -28 50 0 48 1 50 28 50 15 0 33 -5 40
-12z"/>
<path d="M1850 801 c0 -11 -6 -22 -12 -25 -10 -5 -10 -7 0 -12 7 -3 12 -26 12
-58 0 -29 5 -57 12 -64 15 -15 48 -16 48 -2 0 6 -7 10 -15 10 -12 0 -15 13
-15 55 0 42 3 55 15 55 8 0 15 5 15 10 0 6 -7 10 -15 10 -8 0 -15 9 -15 20 0
11 -7 20 -15 20 -8 0 -15 -9 -15 -19z"/>
<path d="M2003 803 c-4 -10 -11 -22 -17 -26 -8 -6 -7 -10 2 -14 7 -3 12 -23
12 -49 0 -58 14 -84 45 -84 14 0 25 5 25 10 0 6 -9 10 -20 10 -18 0 -20 7 -20
55 0 48 2 55 20 55 11 0 20 5 20 10 0 6 -9 10 -20 10 -13 0 -20 7 -20 20 0 25
-18 26 -27 3z"/>
<path d="M2553 803 c-4 -10 -11 -22 -17 -26 -8 -6 -7 -10 2 -14 7 -3 12 -23
12 -49 0 -58 14 -84 45 -84 14 0 25 5 25 10 0 6 -9 10 -20 10 -18 0 -20 7 -20
55 0 48 2 55 20 55 11 0 20 5 20 10 0 6 -9 10 -20 10 -13 0 -20 7 -20 20 0 25
-18 26 -27 3z"/>
<path d="M4560 801 c0 -11 -6 -22 -12 -25 -10 -5 -10 -7 0 -12 7 -3 12 -26 12
-58 0 -29 5 -57 12 -64 15 -15 48 -16 48 -2 0 6 -7 10 -15 10 -12 0 -15 13
-15 55 0 42 3 55 15 55 8 0 15 5 15 10 0 6 -7 10 -15 10 -8 0 -15 9 -15 20 0
11 -7 20 -15 20 -8 0 -15 -9 -15 -19z"/>
<path d="M5190 801 c0 -11 -6 -22 -12 -25 -10 -5 -10 -7 0 -12 7 -3 12 -26 12
-58 0 -29 5 -57 12 -64 15 -15 48 -16 48 -2 0 6 -7 10 -15 10 -12 0 -15 13
-15 55 0 42 3 55 15 55 8 0 15 5 15 10 0 6 -7 10 -15 10 -8 0 -15 9 -15 20 0
11 -7 20 -15 20 -8 0 -15 -9 -15 -19z"/>
<path d="M8103 803 c-4 -10 -11 -22 -17 -26 -8 -6 -7 -10 2 -14 7 -3 12 -23
12 -49 0 -58 14 -84 45 -84 14 0 25 5 25 10 0 6 -9 10 -20 10 -18 0 -20 7 -20
54 0 49 2 54 24 58 22 4 27 -2 51 -59 26 -61 27 -64 11 -103 -13 -32 -13 -40
-3 -40 8 0 30 41 50 93 52 133 51 127 35 127 -7 0 -22 -24 -32 -52 l-19 -53
-24 53 c-22 48 -27 52 -59 52 -27 0 -34 4 -34 20 0 25 -18 26 -27 3z"/>
<path d="M4827 773 c-11 -11 -17 -13 -17 -5 0 7 -4 12 -10 12 -6 0 -10 -32
-10 -75 0 -60 3 -75 15 -75 12 0 15 13 15 61 0 52 3 62 20 66 11 3 20 12 20
19 0 19 -12 18 -33 -3z"/>
<path d="M7870 780 c-8 -5 -23 -7 -32 -4 -16 5 -18 -3 -18 -70 0 -61 3 -76 15
-76 12 0 15 13 15 59 0 50 3 61 19 66 11 3 22 12 25 20 6 17 -2 19 -24 5z"/>
<path d="M1416 759 c-50 -40 -23 -129 39 -129 33 0 75 42 75 75 0 30 -41 75
-68 75 -11 0 -31 -9 -46 -21z m73 -13 c17 -20 10 -77 -11 -90 -26 -16 -52 4
-56 43 -4 36 12 61 38 61 10 0 23 -6 29 -14z"/>
<path d="M1560 705 c0 -87 18 -102 22 -19 3 64 23 88 56 68 12 -8 18 -27 20
-68 2 -41 7 -56 17 -56 16 0 19 62 6 110 -9 32 -54 49 -81 32 -12 -7 -20 -8
-20 -2 0 5 -4 10 -10 10 -6 0 -10 -32 -10 -75z"/>
<path d="M1726 764 c-24 -24 -16 -47 22 -63 38 -17 45 -51 9 -51 -13 0 -28 5
-35 12 -9 9 -12 8 -12 -5 0 -22 44 -33 76 -18 38 17 32 54 -12 74 -40 20 -41
42 0 42 14 -1 25 4 23 10 -6 17 -54 17 -71 -1z"/>
<path d="M1930 705 c0 -60 3 -75 15 -75 12 0 15 15 15 75 0 60 -3 75 -15 75
-12 0 -15 -15 -15 -75z"/>
<path d="M2090 722 c0 -73 17 -92 78 -89 l42 1 0 73 c0 57 -3 73 -15 73 -10 0
-15 -16 -17 -62 -3 -60 -4 -63 -28 -63 -24 0 -25 3 -28 63 -2 46 -7 62 -17 62
-12 0 -15 -14 -15 -58z"/>
<path d="M2259 761 c-17 -13 -23 -29 -23 -56 0 -57 52 -90 108 -69 28 11 17
20 -17 16 -22 -2 -39 2 -50 13 -28 27 -20 35 33 35 46 0 50 2 50 23 0 29 -29
57 -57 57 -12 0 -31 -8 -44 -19z m69 -13 c21 -21 13 -28 -28 -28 -38 0 -40 2
-30 20 12 22 40 26 58 8z"/>
<path d="M2390 705 c0 -87 18 -102 22 -19 3 64 23 88 56 68 12 -8 18 -27 20
-68 2 -41 7 -56 17 -56 16 0 19 62 6 110 -9 32 -54 49 -81 32 -12 -7 -20 -8
-20 -2 0 5 -4 10 -10 10 -6 0 -10 -32 -10 -75z"/>
<path d="M2726 759 c-50 -40 -23 -129 39 -129 33 0 75 42 75 75 0 30 -41 75
-68 75 -11 0 -31 -9 -46 -21z m73 -13 c17 -20 10 -77 -11 -90 -26 -16 -52 4
-56 43 -4 36 12 61 38 61 10 0 23 -6 29 -14z"/>
<path d="M3170 775 c0 -2 12 -30 26 -62 24 -56 26 -76 8 -132 -5 -18 -4 -23 7
-19 7 2 24 31 37 64 63 155 63 154 47 154 -8 0 -22 -21 -32 -50 -10 -27 -20
-50 -23 -50 -3 0 -14 23 -24 50 -10 28 -24 50 -32 50 -8 0 -14 -2 -14 -5z"/>
<path d="M3330 705 c0 -43 4 -75 10 -75 6 0 10 24 10 53 0 56 12 77 42 77 22
0 38 -37 38 -91 0 -61 19 -46 22 17 3 60 20 83 52 71 12 -5 16 -20 16 -67 0
-47 3 -60 15 -60 11 0 15 13 15 53 0 82 -36 116 -92 86 -14 -8 -23 -8 -31 0
-15 15 -50 14 -65 -1 -9 -9 -12 -9 -12 0 0 7 -4 12 -10 12 -6 0 -10 -32 -10
-75z"/>
<path d="M3740 705 c0 -43 4 -75 10 -75 6 0 10 32 10 75 0 43 -4 75 -10 75 -6
0 -10 -32 -10 -75z"/>
<path d="M3816 759 c-50 -40 -23 -129 39 -129 33 0 75 42 75 75 0 30 -41 75
-68 75 -11 0 -31 -9 -46 -21z m73 -13 c17 -20 10 -77 -11 -90 -26 -16 -52 4
-56 43 -4 36 12 61 38 61 10 0 23 -6 29 -14z"/>
<path d="M3966 764 c-24 -24 -16 -47 22 -63 38 -17 45 -51 9 -51 -13 0 -28 5
-35 12 -9 9 -12 8 -12 -5 0 -22 44 -33 76 -18 38 17 32 54 -12 74 -40 20 -41
42 0 42 14 -1 25 4 23 10 -6 17 -54 17 -71 -1z"/>
<path d="M4080 705 c0 -43 4 -75 10 -75 6 0 10 32 10 75 0 43 -4 75 -10 75 -6
0 -10 -32 -10 -75z"/>
<path d="M4146 764 c-24 -24 -16 -47 22 -63 38 -17 45 -51 9 -51 -13 0 -28 5
-35 12 -9 9 -12 8 -12 -5 0 -22 44 -33 76 -18 38 17 32 54 -12 74 -40 20 -41
42 0 42 14 -1 25 4 23 10 -6 17 -54 17 -71 -1z"/>
<path d="M4390 705 c0 -87 18 -102 22 -19 3 64 23 88 56 68 12 -8 18 -27 20
-68 2 -41 7 -56 17 -56 16 0 19 62 6 110 -9 32 -54 49 -81 32 -12 -7 -20 -8
-20 -2 0 5 -4 10 -10 10 -6 0 -10 -32 -10 -75z"/>
<path d="M4659 761 c-17 -13 -23 -29 -23 -56 0 -57 52 -90 108 -69 28 11 17
20 -17 16 -22 -2 -39 2 -50 13 -28 27 -20 35 33 35 46 0 50 2 50 23 0 29 -29
57 -57 57 -12 0 -31 -8 -44 -19z m69 -13 c21 -21 13 -28 -28 -28 -38 0 -40 2
-30 20 12 22 40 26 58 8z"/>
<path d="M4880 703 c0 -57 3 -73 15 -73 10 0 15 16 17 63 3 59 4 62 30 65 33
4 48 -25 48 -89 0 -21 5 -39 10 -39 6 0 10 26 10 58 0 74 -16 91 -83 89 l-47
-2 0 -72z"/>
<path d="M5063 773 c-25 -9 -13 -22 16 -17 21 4 30 2 35 -11 8 -21 10 -19 -33
-31 -42 -11 -60 -37 -45 -61 13 -21 52 -29 66 -15 7 7 16 7 29 -1 22 -13 38
-2 21 15 -7 7 -12 33 -12 58 0 25 -5 51 -12 58 -12 12 -43 15 -65 5z m57 -86
c0 -19 -21 -37 -42 -37 -21 0 -25 35 -5 43 23 10 47 7 47 -6z"/>
<path d="M5270 705 c0 -60 3 -75 15 -75 12 0 15 15 15 75 0 60 -3 75 -15 75
-12 0 -15 -15 -15 -75z"/>
<path d="M5350 762 c-48 -39 -17 -132 44 -132 42 0 66 27 66 75 0 34 -5 47
-22 59 -30 21 -61 20 -88 -2z m82 -27 c18 -41 0 -80 -37 -80 -23 0 -32 6 -39
27 -14 39 6 78 39 78 18 0 29 -8 37 -25z"/>
<path d="M5490 703 c0 -57 3 -73 15 -73 10 0 15 16 17 63 3 59 4 62 30 65 33
4 48 -25 48 -89 0 -21 5 -39 10 -39 6 0 10 26 10 58 0 74 -16 91 -83 89 l-47
-2 0 -72z"/>
<path d="M5673 773 c-25 -9 -13 -22 16 -17 21 4 30 2 35 -11 8 -21 10 -19 -33
-31 -42 -11 -60 -37 -45 -61 13 -21 52 -29 66 -15 7 7 16 7 29 -1 22 -13 38
-2 21 15 -7 7 -12 33 -12 58 0 25 -5 51 -12 58 -12 12 -43 15 -65 5z m57 -86
c0 -19 -21 -37 -42 -37 -21 0 -25 35 -5 43 23 10 47 7 47 -6z"/>
<path d="M6210 760 c-56 -56 9 -153 84 -124 27 10 18 21 -14 16 -32 -5 -60 11
-60 34 0 10 14 14 50 14 43 0 50 3 50 20 0 28 -35 60 -65 60 -14 0 -34 -9 -45
-20z m78 -22 c3 -15 -4 -18 -32 -18 -38 0 -44 8 -24 28 17 17 52 11 56 -10z"/>
<path d="M6360 760 c-56 -56 9 -153 84 -124 27 10 18 21 -14 16 -32 -5 -60 11
-60 34 0 10 14 14 50 14 43 0 50 3 50 20 0 28 -35 60 -65 60 -14 0 -34 -9 -45
-20z m78 -22 c3 -15 -4 -18 -32 -18 -38 0 -44 8 -24 28 17 17 52 11 56 -10z"/>
<path d="M6490 703 c0 -58 3 -73 15 -73 12 0 15 13 15 60 0 47 4 62 16 67 32
12 49 -11 52 -71 2 -41 7 -56 17 -56 12 0 15 14 15 60 0 47 4 62 16 67 32 12
49 -11 52 -71 4 -75 22 -72 22 3 0 66 -15 91 -54 91 -13 0 -29 -7 -36 -15 -11
-13 -15 -13 -21 -3 -5 7 -29 13 -59 14 l-50 1 0 -74z"/>
<path d="M6759 761 c-17 -13 -23 -29 -23 -56 0 -57 52 -90 108 -69 28 11 17
20 -17 16 -22 -2 -39 2 -50 13 -28 27 -20 35 33 35 46 0 50 2 50 23 0 29 -29
57 -57 57 -12 0 -31 -8 -44 -19z m69 -13 c21 -21 13 -28 -28 -28 -38 0 -40 2
-30 20 12 22 40 26 58 8z"/>
<path d="M7320 705 c0 -87 18 -102 22 -19 3 64 23 88 56 68 12 -8 18 -27 20
-68 2 -41 7 -56 17 -56 16 0 19 62 6 110 -9 32 -54 49 -81 32 -12 -7 -20 -8
-20 -2 0 5 -4 10 -10 10 -6 0 -10 -32 -10 -75z"/>
<path d="M7480 705 c0 -43 4 -75 10 -75 6 0 10 32 10 75 0 43 -4 75 -10 75 -6
0 -10 -32 -10 -75z"/>
<path d="M7549 708 c36 -98 50 -98 84 -3 20 59 23 75 12 75 -8 0 -21 -23 -31
-55 -10 -30 -20 -52 -23 -49 -3 3 -13 26 -22 52 -9 26 -23 48 -31 50 -13 3
-12 -10 11 -70z"/>
<path d="M7690 760 c-56 -56 9 -153 84 -124 27 10 18 21 -14 16 -32 -5 -60 11
-60 34 0 10 14 14 50 14 43 0 50 3 50 20 0 28 -35 60 -65 60 -14 0 -34 -9 -45
-20z m78 -22 c3 -15 -4 -18 -32 -18 -38 0 -44 8 -24 28 17 17 52 11 56 -10z"/>
<path d="M7922 768 c-23 -23 -14 -54 21 -69 42 -18 43 -44 0 -44 -41 0 -53
-12 -19 -21 37 -9 74 3 81 26 8 27 -1 39 -42 56 -41 18 -38 39 5 39 18 0 31 4
29 10 -5 15 -60 18 -75 3z"/>
<path d="M8030 705 c0 -60 3 -75 15 -75 12 0 15 15 15 75 0 60 -3 75 -15 75
-12 0 -15 -15 -15 -75z"/>
<path d="M8690 722 c0 -73 17 -92 78 -89 l42 1 0 73 c0 57 -3 73 -15 73 -10 0
-15 -16 -17 -62 -3 -60 -4 -63 -28 -63 -24 0 -25 3 -28 63 -2 46 -7 62 -17 62
-12 0 -15 -14 -15 -58z"/>
<path d="M8840 703 c0 -57 3 -73 15 -73 10 0 15 16 17 63 3 59 4 62 30 65 33
4 48 -25 48 -89 0 -21 5 -39 10 -39 6 0 10 26 10 58 0 74 -16 91 -83 89 l-47
-2 0 -72z"/>
<path d="M9019 761 c-17 -13 -23 -29 -23 -56 0 -57 52 -90 108 -69 28 11 17
20 -17 16 -22 -2 -39 2 -50 13 -28 27 -20 35 33 35 46 0 50 2 50 23 0 29 -29
57 -57 57 -12 0 -31 -8 -44 -19z m69 -13 c21 -21 13 -28 -28 -28 -38 0 -40 2
-30 20 12 22 40 26 58 8z"/>
<path d="M8403 631 c1 -22 5 -27 15 -19 17 14 15 48 -3 48 -10 0 -14 -9 -12
-29z"/>
<path d="M1214 404 c-4 -20 -2 -45 5 -57 9 -19 10 -17 5 14 -3 20 -1 46 5 58
7 13 8 21 2 21 -6 0 -13 -16 -17 -36z"/>
<path d="M1250 390 l0 -50 33 1 c23 1 26 3 10 6 -27 5 -31 30 -5 36 16 4 16 5
0 6 -27 2 -23 39 5 44 16 3 13 5 -10 6 l-33 1 0 -50z"/>
<path d="M1501 393 c-1 -50 0 -53 24 -53 18 0 26 7 31 24 7 31 -1 46 -26 46
-10 0 -21 8 -23 18 -3 9 -5 -7 -6 -35z m41 -5 c7 -19 -2 -38 -18 -38 -8 0 -14
8 -14 18 0 30 23 44 32 20z"/>
<path d="M1570 390 c0 -27 5 -50 10 -50 6 0 10 23 10 50 0 28 -4 50 -10 50 -5
0 -10 -22 -10 -50z"/>
<path d="M1703 390 c0 -31 2 -41 4 -22 3 18 10 32 18 32 8 0 15 -14 18 -32 l4
-33 1 33 c2 26 -3 35 -17 39 -11 3 -22 12 -24 22 -3 9 -4 -9 -4 -39z"/>
<path d="M1880 425 c0 -8 -6 -15 -14 -15 -21 0 -38 -27 -31 -50 4 -13 15 -20
31 -20 22 0 24 4 24 50 0 28 -2 50 -5 50 -3 0 -5 -7 -5 -15z m0 -50 c0 -16 -6
-25 -15 -25 -9 0 -15 9 -15 25 0 16 6 25 15 25 9 0 15 -9 15 -25z"/>
<path d="M2120 426 c0 -7 -9 -16 -21 -19 -16 -4 -20 -12 -17 -34 2 -22 9 -29
31 -31 26 -3 27 -2 27 47 0 28 -4 51 -10 51 -5 0 -10 -6 -10 -14z m0 -51 c0
-26 -14 -33 -25 -15 -9 14 1 40 15 40 5 0 10 -11 10 -25z"/>
<path d="M2303 423 c-4 -10 2 -23 15 -34 28 -22 29 -43 2 -36 -11 3 -20 1 -20
-4 0 -15 37 -10 51 7 12 14 10 19 -15 39 -18 14 -24 25 -17 29 6 4 16 4 21 1
6 -3 10 -1 10 4 0 18 -40 12 -47 -6z"/>
<path d="M2766 431 c-3 -5 3 -7 14 -4 22 6 29 -22 8 -30 -10 -4 -10 -6 0 -6
17 -1 15 -41 -3 -41 -8 0 -15 5 -15 10 0 6 -4 10 -10 10 -5 0 -7 -7 -4 -15 4
-8 14 -15 25 -15 19 0 43 33 31 44 -3 4 -7 17 -7 29 0 22 -28 36 -39 18z"/>
<path d="M2932 423 c-4 -10 -5 -34 -1 -53 l6 -35 2 32 c0 17 7 34 14 36 9 4 8
6 -2 6 -11 1 -11 4 -1 16 8 10 9 15 2 15 -6 0 -15 -8 -20 -17z"/>
<path d="M3053 390 c0 -31 2 -41 4 -22 3 18 10 32 18 32 8 0 15 -14 18 -32 l4
-33 1 33 c2 26 -3 35 -17 39 -11 3 -22 12 -24 22 -3 9 -4 -9 -4 -39z"/>
<path d="M3210 409 c0 -40 16 -69 38 -69 29 0 42 21 41 65 l-2 40 -6 -42 c-8
-49 -14 -58 -36 -50 -10 4 -15 20 -15 47 0 22 -4 40 -10 40 -5 0 -10 -14 -10
-31z"/>
<path d="M3322 428 c-17 -17 -15 -63 2 -78 23 -18 61 -8 64 18 3 16 -2 22 -15
22 -15 0 -16 -2 -3 -10 12 -7 12 -12 2 -22 -15 -15 -45 0 -50 26 -5 24 18 48
40 43 10 -3 18 -1 18 4 0 13 -44 11 -58 -3z"/>
<path d="M3408 415 c-16 -35 3 -75 36 -75 14 0 28 5 31 10 4 7 -2 9 -18 5 -33
-9 -54 24 -37 56 9 16 18 19 37 14 16 -4 22 -2 18 5 -12 20 -55 11 -67 -15z"/>
<path d="M3546 431 c-16 -25 -34 -91 -26 -91 6 0 10 7 10 15 0 9 9 15 25 15
16 0 25 -6 25 -15 0 -8 4 -15 10 -15 5 0 3 19 -7 43 -19 50 -29 62 -37 48z
m24 -43 c0 -5 -7 -8 -15 -8 -17 0 -18 2 -9 25 5 13 8 14 15 3 5 -7 9 -16 9
-20z"/>
<path d="M3822 423 c-4 -10 -5 -34 -1 -53 l6 -35 2 33 c0 18 6 32 14 32 8 0 7
4 -3 10 -13 9 -13 11 0 20 9 6 11 10 3 10 -7 0 -16 -8 -21 -17z"/>
<path d="M3900 425 c-10 -12 -10 -15 4 -15 19 0 23 -56 4 -63 -7 -3 1 -5 17
-5 17 0 24 2 18 5 -8 3 -13 23 -13 49 0 46 -9 54 -30 29z"/>
<path d="M3965 421 c-8 -25 1 -41 22 -41 14 0 14 -3 -2 -20 -10 -11 -13 -20
-8 -20 17 0 45 49 41 73 -4 30 -44 36 -53 8z m40 -11 c0 -7 -6 -15 -12 -17 -8
-3 -13 4 -13 17 0 13 5 20 13 18 6 -3 12 -11 12 -18z"/>
<path d="M4046 424 c-10 -26 -7 -34 14 -34 14 0 20 -7 20 -21 0 -16 -5 -20
-20 -16 -11 3 -20 1 -20 -4 0 -14 36 -11 49 5 14 16 4 46 -15 46 -20 0 -17 28
4 33 13 4 12 5 -4 6 -12 0 -25 -6 -28 -15z"/>
<path d="M4127 410 c-31 -52 7 -98 44 -54 11 14 10 19 -8 33 -15 13 -18 22
-11 34 16 30 -7 18 -25 -13z m33 -40 c0 -11 -6 -20 -13 -20 -19 0 -27 10 -20
26 8 21 33 17 33 -6z"/>
<path d="M4280 430 c0 -5 5 -10 10 -10 6 0 10 5 10 10 0 6 -4 10 -10 10 -5 0
-10 -4 -10 -10z"/>
<path d="M4360 425 c0 -8 -9 -15 -20 -15 -12 0 -22 -9 -26 -24 -8 -33 2 -46
31 -44 23 2 25 7 25 50 0 26 -2 48 -5 48 -3 0 -5 -7 -5 -15z m0 -44 c0 -11 -5
-23 -11 -27 -14 -8 -29 14 -22 33 8 20 33 16 33 -6z"/>
<path d="M4715 423 c-12 -21 -8 -83 6 -83 5 0 9 14 9 30 0 17 5 30 10 30 6 0
10 -13 10 -30 0 -16 5 -30 10 -30 6 0 10 16 10 35 0 28 -4 35 -20 35 -22 0
-27 15 -7 23 8 4 7 6 -3 6 -8 1 -20 -7 -25 -16z"/>
<path d="M4960 430 c0 -5 5 -10 10 -10 6 0 10 5 10 10 0 6 -4 10 -10 10 -5 0
-10 -4 -10 -10z"/>
<path d="M5421 393 c-1 -50 0 -53 24 -53 18 0 26 7 31 24 7 31 -1 46 -26 46
-10 0 -21 8 -23 18 -3 9 -5 -7 -6 -35z m41 -5 c7 -19 -2 -38 -18 -38 -8 0 -14
8 -14 18 0 30 23 44 32 20z"/>
<path d="M5641 388 c1 -29 4 -43 6 -31 2 13 13 24 26 26 l22 4 -22 2 c-35 2
-31 39 5 44 25 4 25 4 -5 6 l-33 1 1 -52z"/>
<path d="M5767 433 c-13 -12 -7 -42 10 -52 14 -8 15 -12 4 -25 -9 -11 -10 -16
-2 -16 16 0 45 65 38 84 -6 16 -38 22 -50 9z m39 -14 c10 -17 -13 -36 -27 -22
-12 12 -4 33 11 33 5 0 12 -5 16 -11z"/>
<path d="M5900 425 c-9 -11 -10 -16 -2 -11 9 5 12 -2 12 -28 0 -19 -6 -37 -12
-39 -7 -3 1 -6 17 -6 17 0 25 3 18 7 -6 4 -13 27 -15 51 -3 41 -4 43 -18 26z"/>
<path d="M5965 429 c-4 -6 -4 -13 -1 -16 3 -4 6 -1 6 5 0 7 7 12 15 12 24 0
18 -31 -12 -62 l-27 -28 45 0 c44 0 45 1 62 47 9 25 15 48 13 50 -2 2 -12 -16
-21 -41 -14 -37 -23 -46 -41 -46 l-24 0 20 32 c14 24 16 35 8 45 -13 16 -34
17 -43 2z"/>
<path d="M6087 434 c-14 -14 -7 -26 8 -14 12 10 19 10 27 2 9 -9 7 -17 -9 -34
-37 -42 -37 -48 -1 -47 25 1 27 3 10 6 l-24 5 22 23 c12 13 20 31 18 42 -3 18
-38 30 -51 17z"/>
<path d="M6162 428 c-17 -17 -15 -63 4 -79 22 -18 48 0 52 35 6 45 -29 71 -56
44z m41 -18 c7 -27 -3 -60 -18 -60 -15 0 -25 33 -18 60 3 11 11 20 18 20 7 0
15 -9 18 -20z"/>
<path d="M6234 415 c-10 -39 3 -75 26 -75 29 0 47 42 32 75 -7 15 -20 25 -32
25 -13 0 -22 -9 -26 -25z m41 -25 c0 -38 -20 -52 -30 -21 -8 27 3 63 18 58 7
-2 12 -19 12 -37z"/>
<path d="M6319 423 c-12 -15 -12 -16 4 -10 14 5 17 1 17 -27 0 -19 -6 -37 -12
-39 -7 -3 1 -5 17 -5 17 0 24 2 18 5 -8 3 -13 23 -13 49 0 47 -9 55 -31 27z"/>
<path d="M6432 399 c6 -80 70 -80 76 0 2 23 -1 41 -7 41 -5 0 -11 -19 -13 -42
-2 -30 -8 -43 -18 -43 -10 0 -16 13 -18 43 -2 23 -8 42 -13 42 -6 0 -9 -18 -7
-41z"/>
<path d="M6575 430 c-5 -9 -1 -10 13 -6 22 7 39 -8 22 -19 -8 -5 -7 -11 1 -21
19 -23 -5 -42 -27 -23 -15 12 -17 12 -12 -1 2 -8 16 -15 29 -15 22 0 24 4 24
45 0 38 -3 45 -22 48 -11 2 -24 -2 -28 -8z"/>
<path d="M6752 423 c-4 -10 -5 -34 -1 -53 l6 -35 2 33 c0 18 6 32 14 32 8 0 7
4 -3 10 -13 9 -13 11 0 20 9 6 11 10 3 10 -7 0 -16 -8 -21 -17z"/>
<path d="M6860 390 c0 -27 5 -50 10 -50 6 0 10 14 10 31 0 39 22 34 31 -7 l7
-29 1 33 c1 26 -4 35 -19 39 -11 3 -20 12 -20 19 0 8 -4 14 -10 14 -5 0 -10
-22 -10 -50z"/>
<path d="M7042 428 c-17 -17 -15 -63 2 -78 23 -18 61 -8 64 18 3 16 -2 22 -15
22 -15 0 -16 -2 -3 -10 12 -7 12 -12 2 -22 -9 -9 -17 -10 -30 -2 -39 25 -19
80 26 69 15 -4 21 -2 17 5 -8 14 -48 13 -63 -2z"/>
<path d="M7858 423 c-2 -10 -1 -34 3 -53 l6 -35 2 33 c0 18 6 32 14 32 8 0 7
4 -3 10 -13 9 -13 11 0 20 13 8 13 10 -1 10 -9 0 -18 -8 -21 -17z"/>
<path d="M7920 430 c0 -5 5 -10 10 -10 6 0 10 5 10 10 0 6 -4 10 -10 10 -5 0
-10 -4 -10 -10z"/>
<path d="M8070 425 c0 -8 -6 -15 -14 -15 -21 0 -38 -27 -31 -50 4 -13 15 -20
31 -20 22 0 24 4 24 50 0 28 -2 50 -5 50 -3 0 -5 -7 -5 -15z m0 -50 c0 -16 -6
-25 -15 -25 -9 0 -15 9 -15 25 0 16 6 25 15 25 9 0 15 -9 15 -25z"/>
<path d="M8100 430 c0 -5 5 -10 10 -10 6 0 10 5 10 10 0 6 -4 10 -10 10 -5 0
-10 -4 -10 -10z"/>
<path d="M8205 379 c-1 -32 3 -53 7 -46 10 15 10 78 0 94 -4 6 -7 -15 -7 -48z"/>
<path d="M1388 419 c-2 -6 -2 -26 0 -45 3 -24 9 -34 21 -33 10 0 11 2 4 6 -15
5 -18 50 -4 55 5 2 3 8 -4 15 -9 9 -15 9 -17 2z"/>
<path d="M2502 413 c-8 -8 -9 -13 -2 -13 5 0 10 -13 10 -30 0 -22 5 -30 18
-29 10 0 12 3 5 6 -15 5 -18 50 -4 55 5 2 4 8 -3 14 -8 8 -15 7 -24 -3z"/>
<path d="M2998 419 c-2 -6 -2 -26 0 -45 3 -24 9 -34 21 -33 10 0 11 2 4 6 -15
5 -18 50 -4 55 5 2 3 8 -4 15 -9 9 -15 9 -17 2z"/>
<path d="M3668 418 c-6 -19 6 -71 17 -75 8 -2 11 30 6 80 -1 12 -19 8 -23 -5z"/>
<path d="M4628 418 c-6 -19 6 -71 17 -75 8 -2 11 30 6 80 -1 12 -19 8 -23 -5z"/>
<path d="M4918 419 c-2 -6 -2 -26 0 -45 3 -24 9 -34 21 -33 10 0 11 2 4 6 -15
5 -18 50 -4 55 5 2 3 8 -4 15 -9 9 -15 9 -17 2z"/>
<path d="M6818 419 c-2 -6 -2 -26 0 -45 3 -24 9 -34 21 -33 10 0 11 2 4 6 -15
5 -18 50 -4 55 5 2 3 8 -4 15 -9 9 -15 9 -17 2z"/>
<path d="M7708 419 c-2 -6 -2 -26 0 -45 3 -24 9 -34 21 -33 10 0 11 2 4 6 -15
5 -18 50 -4 55 5 2 3 8 -4 15 -9 9 -15 9 -17 2z"/>
<path d="M1324 398 c-4 -6 1 -17 12 -25 16 -12 17 -15 4 -23 -13 -8 -13 -10 2
-10 26 0 33 21 12 37 -16 12 -17 15 -4 23 13 8 13 10 -2 10 -9 0 -20 -5 -24
-12z"/>
<path d="M1453 403 c23 -6 22 -19 -4 -26 -26 -7 -20 -31 9 -35 19 -3 22 1 22
32 0 31 -3 36 -22 35 -17 -1 -19 -2 -5 -6z m17 -43 c0 -5 -7 -10 -16 -10 -8 0
-12 5 -9 10 3 6 10 10 16 10 5 0 9 -4 9 -10z"/>
<path d="M1613 375 c0 -22 2 -30 4 -17 2 12 2 30 0 40 -3 9 -5 -1 -4 -23z"/>
<path d="M1640 395 c0 -9 7 -18 15 -21 20 -8 19 -21 -2 -27 -16 -4 -16 -5 -1
-6 24 -2 34 20 15 34 -22 16 -21 22 1 28 13 4 11 5 -5 6 -15 1 -23 -5 -23 -14z"/>
<path d="M1770 395 c-10 -12 -11 -21 -3 -33 11 -19 53 -29 53 -14 0 6 -9 8
-20 5 -11 -3 -20 0 -20 6 0 6 9 11 21 11 14 0 19 5 17 17 -4 24 -32 28 -48 8z
m40 -5 c0 -5 -7 -10 -15 -10 -8 0 -15 5 -15 10 0 6 7 10 15 10 8 0 15 -4 15
-10z"/>
<path d="M1930 391 c0 -35 12 -51 36 -51 21 0 24 4 23 38 -1 35 -2 35 -8 8 -9
-41 -31 -46 -31 -7 0 17 -4 31 -10 31 -5 0 -10 -9 -10 -19z"/>
<path d="M2011 373 c1 -36 2 -36 8 -9 9 42 29 44 34 4 l4 -33 1 38 c2 33 0 37
-23 37 -22 0 -25 -4 -24 -37z"/>
<path d="M2154 396 c-11 -28 1 -51 26 -53 l25 -3 -25 12 -25 12 28 4 c21 2 27
8 23 19 -3 8 -6 17 -6 19 0 11 -41 2 -46 -10z m41 -6 c3 -5 -3 -10 -15 -10
-12 0 -18 5 -15 10 3 6 10 10 15 10 5 0 12 -4 15 -10z"/>
<path d="M2220 375 c0 -19 5 -35 10 -35 6 0 10 13 10 29 0 16 6 32 13 34 6 3
2 6 -10 6 -20 1 -23 -4 -23 -34z"/>
<path d="M2374 396 c-11 -28 1 -51 26 -53 l25 -3 -25 12 -25 11 23 5 c13 2 32
-4 42 -13 10 -9 25 -15 32 -12 8 4 7 6 -4 6 -12 1 -18 9 -18 26 0 17 6 25 18
26 11 0 12 2 4 6 -7 3 -19 -1 -28 -8 -11 -9 -18 -9 -26 -1 -16 16 -37 15 -44
-2z m36 -6 c0 -5 -7 -10 -16 -10 -8 0 -12 5 -9 10 3 6 10 10 16 10 5 0 9 -4 9
-10z"/>
<path d="M2553 375 c0 -22 2 -30 4 -17 2 12 2 30 0 40 -3 9 -5 -1 -4 -23z"/>
<path d="M2584 396 c-11 -29 0 -51 26 -51 21 0 25 5 25 30 0 24 -5 31 -23 33
-13 2 -24 -3 -28 -12z m43 -12 c8 -21 -13 -42 -28 -27 -13 13 -5 43 11 43 6 0
13 -7 17 -16z"/>
<path d="M2662 373 c1 -37 1 -37 5 -5 3 18 10 32 18 32 8 0 16 -14 18 -32 l5
-33 -2 35 c-1 28 -5 36 -23 38 -21 3 -23 -1 -21 -35z"/>
<path d="M2856 392 c-14 -44 26 -71 55 -36 9 11 10 20 2 32 -15 25 -50 27 -57
4z m44 -17 c0 -15 -6 -25 -14 -25 -16 0 -25 19 -18 38 8 22 32 13 32 -13z"/>
<path d="M3120 395 c-10 -12 -11 -21 -3 -33 11 -19 53 -29 53 -14 0 6 -9 8
-20 5 -11 -3 -20 0 -20 6 0 6 9 11 21 11 14 0 19 5 17 17 -4 24 -32 28 -48 8z
m40 -5 c0 -5 -7 -10 -15 -10 -8 0 -15 5 -15 10 0 6 7 10 15 10 8 0 15 -4 15
-10z"/>
<path d="M3609 394 c-15 -18 -2 -48 22 -50 9 -1 10 0 2 3 -20 7 -16 51 5 56
14 4 14 5 1 6 -9 0 -22 -6 -30 -15z"/>
<path d="M3744 396 c-11 -29 0 -51 26 -51 21 0 25 5 25 30 0 24 -5 31 -23 33
-13 2 -24 -3 -28 -12z m43 -12 c8 -21 -13 -42 -28 -27 -13 13 -5 43 11 43 6 0
13 -7 17 -16z"/>
<path d="M4210 407 c0 -15 23 -67 30 -67 10 0 32 61 25 69 -3 3 -8 -5 -12 -17
-6 -25 -23 -30 -23 -8 0 8 -4 18 -10 21 -5 3 -10 4 -10 2z"/>
<path d="M4280 375 c0 -19 5 -35 10 -35 6 0 10 16 10 35 0 19 -4 35 -10 35 -5
0 -10 -16 -10 -35z"/>
<path d="M4390 395 c-10 -12 -11 -21 -3 -33 11 -19 53 -29 53 -14 0 6 -9 8
-20 5 -11 -3 -20 0 -20 6 0 6 9 11 21 11 14 0 19 5 17 17 -4 24 -32 28 -48 8z
m40 -5 c0 -5 -7 -10 -15 -10 -8 0 -15 5 -15 10 0 6 7 10 15 10 8 0 15 -4 15
-10z"/>
<path d="M4480 376 c0 -20 5 -36 10 -36 6 0 10 14 10 31 0 39 22 34 32 -7 6
-27 6 -27 5 6 -2 30 -6 35 -29 38 -26 3 -28 1 -28 -32z"/>
<path d="M4556 392 c-14 -44 26 -71 55 -36 9 11 10 20 2 32 -15 25 -50 27 -57
4z m44 -17 c0 -15 -6 -25 -14 -25 -16 0 -25 19 -18 38 8 22 32 13 32 -13z"/>
<path d="M4683 375 c0 -22 2 -30 4 -17 2 12 2 30 0 40 -3 9 -5 -1 -4 -23z"/>
<path d="M4785 391 c-8 -28 5 -51 29 -50 14 0 16 2 6 6 -32 13 -33 48 -2 56
12 3 11 5 -5 6 -13 1 -24 -6 -28 -18z"/>
<path d="M4850 400 c0 -5 7 -7 15 -4 8 4 15 2 15 -4 0 -5 -9 -12 -21 -15 -29
-8 -19 -31 14 -35 21 -3 27 1 27 17 0 33 -11 51 -31 51 -10 0 -19 -4 -19 -10z
m30 -40 c0 -5 -4 -10 -10 -10 -5 0 -10 5 -10 10 0 6 5 10 10 10 6 0 10 -4 10
-10z"/>
<path d="M4960 375 c0 -19 5 -35 10 -35 6 0 10 16 10 35 0 19 -4 35 -10 35 -5
0 -10 -16 -10 -35z"/>
<path d="M4996 392 c-14 -44 26 -71 55 -36 9 11 10 20 2 32 -15 25 -50 27 -57
4z m44 -17 c0 -15 -6 -25 -14 -25 -16 0 -25 19 -18 38 8 22 32 13 32 -13z"/>
<path d="M5071 373 c1 -36 2 -36 8 -9 9 42 29 44 34 4 l4 -33 1 38 c2 33 0 37
-23 37 -22 0 -25 -4 -24 -37z"/>
<path d="M5172 373 c1 -37 1 -37 5 -5 3 18 10 32 18 32 8 0 16 -14 18 -32 l5
-33 -2 35 c-1 28 -5 36 -23 38 -21 3 -23 -1 -21 -35z"/>
<path d="M5243 378 c1 -26 7 -34 25 -36 20 -3 22 1 20 35 -1 37 -1 37 -5 6 -5
-42 -30 -43 -37 -3 -6 30 -6 30 -3 -2z"/>
<path d="M5311 372 c1 -35 2 -35 8 -8 9 43 31 45 32 4 l1 -33 7 29 c9 42 29
44 34 4 l5 -33 -2 35 c-1 34 -2 35 -43 37 l-43 3 1 -38z"/>
<path d="M5494 396 c-11 -28 1 -51 26 -53 l25 -3 -25 12 -25 12 28 4 c21 2 27
8 23 19 -3 8 -6 17 -6 19 0 11 -41 2 -46 -10z m41 -6 c3 -5 -3 -10 -15 -10
-12 0 -18 5 -15 10 3 6 10 10 15 10 5 0 12 -4 15 -10z"/>
<path d="M5561 373 c1 -27 3 -31 6 -13 2 14 12 31 21 38 14 11 13 12 -6 12
-19 0 -22 -5 -21 -37z"/>
<path d="M6674 396 c-11 -29 0 -51 26 -51 21 0 25 5 25 30 0 24 -5 31 -23 33
-13 2 -24 -3 -28 -12z m43 -12 c8 -21 -13 -42 -28 -27 -13 13 -5 43 11 43 6 0
13 -7 17 -16z"/>
<path d="M6935 390 c-8 -24 10 -51 34 -49 13 1 13 2 -1 6 -25 6 -22 23 3 23
28 0 21 34 -8 38 -14 2 -23 -3 -28 -18z m40 0 c3 -5 -1 -10 -9 -10 -9 0 -16 5
-16 10 0 6 4 10 9 10 6 0 13 -4 16 -10z"/>
<path d="M7126 392 c-14 -44 26 -71 55 -36 9 11 10 20 2 32 -15 25 -50 27 -57
4z m44 -17 c0 -15 -6 -25 -14 -25 -16 0 -25 19 -18 38 8 22 32 13 32 -13z"/>
<path d="M7202 380 c14 -41 26 -46 38 -15 15 39 12 54 -5 25 l-15 -25 -6 23
c-3 12 -10 22 -15 22 -4 0 -3 -14 3 -30z"/>
<path d="M7264 396 c-11 -28 1 -51 26 -53 l25 -3 -25 12 -25 12 28 4 c21 2 27
8 23 19 -3 8 -6 17 -6 19 0 11 -41 2 -46 -10z m41 -6 c3 -5 -3 -10 -15 -10
-12 0 -18 5 -15 10 3 6 10 10 15 10 5 0 12 -4 15 -10z"/>
<path d="M7331 373 c1 -27 3 -31 6 -13 2 14 12 31 21 38 14 11 13 12 -6 12
-19 0 -22 -5 -21 -37z"/>
<path d="M7380 376 c0 -20 5 -36 10 -36 6 0 10 14 10 31 0 39 22 34 32 -7 6
-27 6 -27 5 6 -2 30 -6 35 -29 38 -26 3 -28 1 -28 -32z"/>
<path d="M7462 372 l1 -37 4 33 c5 40 25 38 34 -4 l7 -29 1 33 c1 40 21 43 21
2 0 -16 5 -30 11 -30 6 0 9 14 7 33 -3 30 -5 32 -45 34 l-43 3 2 -38z"/>
<path d="M7564 396 c-11 -28 1 -51 26 -53 l25 -3 -25 12 -25 12 28 4 c21 2 27
8 23 19 -3 8 -6 17 -6 19 0 11 -41 2 -46 -10z m41 -6 c3 -5 -3 -10 -15 -10
-12 0 -18 5 -15 10 3 6 10 10 15 10 5 0 12 -4 15 -10z"/>
<path d="M7630 376 c0 -20 5 -36 10 -36 6 0 10 14 10 31 0 39 22 34 32 -7 6
-27 6 -27 5 6 -2 30 -6 35 -29 38 -26 3 -28 1 -28 -32z"/>
<path d="M7784 396 c-11 -29 0 -51 26 -51 21 0 25 5 25 30 0 24 -5 31 -23 33
-13 2 -24 -3 -28 -12z m43 -12 c8 -21 -13 -42 -28 -27 -13 13 -5 43 11 43 6 0
13 -7 17 -16z"/>
<path d="M7933 375 c0 -22 2 -30 4 -17 2 12 2 30 0 40 -3 9 -5 -1 -4 -23z"/>
<path d="M7962 373 c1 -37 1 -37 5 -5 3 18 10 32 18 32 8 0 16 -14 18 -32 l5
-33 -2 35 c-1 28 -5 36 -23 38 -21 3 -23 -1 -21 -35z"/>
<path d="M8100 375 c0 -19 5 -35 10 -35 6 0 10 16 10 35 0 19 -4 35 -10 35 -5
0 -10 -16 -10 -35z"/>
<path d="M8140 400 c0 -5 7 -7 15 -4 8 4 15 2 15 -4 0 -5 -9 -12 -21 -15 -29
-8 -19 -31 14 -35 21 -3 27 1 27 17 0 33 -11 51 -31 51 -10 0 -19 -4 -19 -10z
m30 -40 c0 -5 -4 -10 -10 -10 -5 0 -10 5 -10 10 0 6 5 10 10 10 6 0 10 -4 10
-10z"/>
<path d="M5718 383 c7 -3 16 -2 19 1 4 3 -2 6 -13 5 -11 0 -14 -3 -6 -6z"/>
<path d="M5838 383 c6 -2 18 -2 25 0 6 3 1 5 -13 5 -14 0 -19 -2 -12 -5z"/>
<path d="M6388 383 c6 -2 18 -2 25 0 6 3 1 5 -13 5 -14 0 -19 -2 -12 -5z"/>
<path d="M6528 383 c6 -2 18 -2 25 0 6 3 1 5 -13 5 -14 0 -19 -2 -12 -5z"/>
<path d="M1210 230 c0 -27 5 -50 10 -50 6 0 10 10 10 23 l1 22 18 -22 c24 -29
35 -30 21 -2 -9 15 -8 24 1 35 16 19 -5 44 -37 44 -22 0 -24 -4 -24 -50z m50
20 c0 -11 -7 -20 -15 -20 -8 0 -15 9 -15 20 0 11 7 20 15 20 8 0 15 -9 15 -20z"/>
<path d="M1417 233 c-9 -25 -15 -48 -12 -51 2 -3 7 3 11 12 8 21 40 21 53 -1
6 -10 11 -12 11 -6 0 18 -31 93 -39 93 -4 0 -14 -21 -24 -47z m37 2 c3 -9 0
-15 -9 -15 -8 0 -15 7 -15 15 0 8 4 15 9 15 5 0 11 -7 15 -15z"/>
<path d="M1780 268 c0 -20 -51 -40 -67 -27 -21 18 -45 2 -41 -28 2 -22 9 -29
28 -30 l25 -3 -25 12 -25 11 24 5 c15 2 29 -2 37 -12 6 -9 21 -16 33 -16 19 0
21 6 21 50 0 28 -2 50 -5 50 -3 0 -5 -6 -5 -12z m-70 -38 c0 -5 -7 -10 -16
-10 -8 0 -12 5 -9 10 3 6 10 10 16 10 5 0 9 -4 9 -10z m70 -15 c0 -16 -6 -25
-15 -25 -9 0 -15 9 -15 25 0 16 6 25 15 25 9 0 15 -9 15 -25z"/>
<path d="M1810 270 c0 -5 5 -10 10 -10 6 0 10 5 10 10 0 6 -4 10 -10 10 -5 0
-10 -4 -10 -10z"/>
<path d="M2010 266 c0 -8 -10 -16 -22 -18 -18 -2 -23 -10 -23 -33 0 -25 4 -30
28 -33 26 -3 27 -2 27 47 0 28 -2 51 -5 51 -3 0 -5 -6 -5 -14z m-3 -42 c8 -21
-13 -42 -28 -27 -13 13 -5 43 11 43 6 0 13 -7 17 -16z"/>
<path d="M2061 232 c-1 -52 -1 -53 27 -50 23 3 27 8 27 33 0 23 -5 31 -22 33
-12 2 -24 11 -26 20 -3 9 -5 -7 -6 -36z m46 -8 c8 -21 -13 -42 -28 -27 -13 13
-5 43 11 43 6 0 13 -7 17 -16z"/>
<path d="M2232 230 c0 -47 2 -50 7 -20 l6 35 23 -32 c13 -18 28 -33 33 -33 5
0 9 23 9 50 0 28 -4 50 -10 50 -5 0 -10 -14 -10 -32 l0 -32 -30 34 -29 35 1
-55z"/>
<path d="M2336 237 c-18 -48 -21 -71 -5 -44 13 22 45 22 53 1 4 -9 9 -15 11
-12 7 7 -25 98 -35 98 -4 0 -15 -19 -24 -43z m34 -2 c0 -8 -7 -15 -15 -15 -9
0 -12 6 -9 15 4 8 10 15 15 15 5 0 9 -7 9 -15z"/>
<path d="M2426 237 c-18 -48 -21 -71 -5 -44 13 22 45 22 53 1 4 -9 9 -15 11
-12 7 7 -25 98 -35 98 -4 0 -15 -19 -24 -43z m34 -2 c0 -8 -7 -15 -15 -15 -9
0 -12 6 -9 15 4 8 10 15 15 15 5 0 9 -7 9 -15z"/>
<path d="M2512 268 c-7 -7 -12 -24 -12 -38 0 -14 5 -31 12 -38 14 -14 54 -16
63 -3 3 6 -6 9 -21 8 -33 -3 -54 25 -38 51 7 9 21 17 33 16 11 0 21 3 21 8 0
12 -44 10 -58 -4z"/>
<path d="M2802 230 c0 -39 2 -47 7 -26 9 42 29 44 34 4 l4 -33 1 38 c2 30 -1
37 -17 37 -11 0 -22 8 -24 18 -3 9 -5 -8 -5 -38z"/>
<path d="M2907 273 c-10 -9 -9 -33 1 -33 4 0 8 9 8 20 0 23 0 22 -9 13z"/>
<path d="M3183 261 c0 -11 5 -17 9 -15 11 7 10 34 -1 34 -6 0 -9 -9 -8 -19z"/>
<path d="M3496 266 c3 -8 -3 -17 -14 -20 -44 -14 -36 -66 9 -66 28 0 29 2 29
50 0 37 -4 50 -15 50 -8 0 -12 -6 -9 -14z m4 -51 c0 -16 -6 -25 -15 -25 -15 0
-21 31 -8 43 13 14 23 6 23 -18z"/>
<path d="M1848 259 c-2 -6 -2 -26 0 -45 3 -24 9 -34 21 -33 10 0 11 2 4 6 -15
5 -18 50 -4 55 5 2 3 8 -4 15 -9 9 -15 9 -17 2z"/>
<path d="M2748 258 c-6 -19 6 -71 17 -75 8 -2 11 30 6 80 -1 12 -19 8 -23 -5z"/>
<path d="M2940 246 c-5 -15 -15 -36 -20 -47 -7 -13 -7 -19 0 -19 5 0 10 7 10
15 0 8 9 15 20 15 11 0 20 -7 20 -15 0 -8 6 -15 14 -15 11 0 10 9 -6 43 -26
55 -26 54 -38 23z m20 -16 c0 -5 -5 -10 -11 -10 -5 0 -7 5 -4 10 3 6 8 10 11
10 2 0 4 -4 4 -10z"/>
<path d="M3251 248 c-13 -36 2 -63 36 -66 24 -2 32 2 36 17 3 14 0 21 -9 21
-8 0 -11 -6 -7 -16 4 -12 0 -15 -18 -12 -19 2 -24 9 -24 33 0 26 4 30 28 30
15 -1 27 3 27 7 0 4 -14 8 -30 8 -23 0 -33 -6 -39 -22z"/>
<path d="M73 205 c0 -27 2 -38 4 -22 2 15 2 37 0 50 -2 12 -4 0 -4 -28z"/>
<path d="M90 211 c0 -22 5 -43 10 -46 6 -4 10 10 10 34 0 22 -4 43 -10 46 -6
4 -10 -10 -10 -34z"/>
<path d="M225 240 c-55 -3 -90 -7 -77 -8 28 -3 33 -52 5 -53 -15 0 -15 -2 2
-9 32 -14 35 -12 35 25 0 28 4 35 20 35 11 0 20 -7 20 -15 0 -8 -5 -15 -10
-15 -6 0 -3 -11 6 -25 9 -14 19 -23 22 -21 3 3 -1 12 -8 21 -10 13 -9 15 8 15
21 0 39 -40 19 -40 -7 0 -3 -8 8 -16 19 -16 19 -16 -7 -12 -15 3 -25 1 -22 -3
3 -5 16 -9 29 -9 22 0 23 2 18 60 -6 67 5 78 28 28 9 -21 22 -32 37 -33 19 -1
22 3 22 32 0 31 2 33 36 33 31 0 35 -3 32 -22 -2 -15 -9 -22 -20 -22 -23 2
-14 -12 12 -19 17 -4 20 0 20 28 0 18 6 36 13 38 12 5 -86 9 -100 5 -5 -2 -8
-14 -8 -28 0 -16 -6 -26 -19 -28 -12 -3 -16 0 -11 8 4 7 1 16 -6 21 -12 7 -12
10 0 21 10 10 12 10 7 1 -4 -7 -2 -13 4 -13 14 0 8 23 -6 25 -5 0 -54 -2 -109
-5z m45 -25 c0 -8 -7 -15 -15 -15 -8 0 -15 7 -15 15 0 8 7 15 15 15 8 0 15 -7
15 -15z"/>
<path d="M1073 205 c0 -27 2 -38 4 -22 2 15 2 37 0 50 -2 12 -4 0 -4 -28z"/>
<path d="M1103 205 c0 -27 2 -38 4 -22 2 15 2 37 0 50 -2 12 -4 0 -4 -28z"/>
<path d="M1295 230 c-8 -24 10 -51 34 -49 13 1 13 2 -1 6 -25 6 -22 23 3 23
28 0 21 34 -8 38 -14 2 -23 -3 -28 -18z m40 0 c3 -5 -1 -10 -9 -10 -9 0 -16 5
-16 10 0 6 4 10 9 10 6 0 13 -4 16 -10z"/>
<path d="M1495 231 c-8 -28 5 -51 29 -50 14 0 16 2 6 6 -32 13 -33 48 -2 56
12 3 11 5 -5 6 -13 1 -24 -6 -28 -18z"/>
<path d="M1555 231 c-8 -28 5 -51 29 -50 14 0 16 2 6 6 -32 13 -33 48 -2 56
12 3 11 5 -5 6 -13 1 -24 -6 -28 -18z"/>
<path d="M1621 213 c1 -27 3 -31 6 -13 2 14 12 31 21 38 14 11 13 12 -6 12
-19 0 -22 -5 -21 -37z"/>
<path d="M1823 215 c0 -22 2 -30 4 -17 2 12 2 30 0 40 -3 9 -5 -1 -4 -23z"/>
<path d="M1894 236 c-11 -28 1 -51 26 -53 l25 -3 -25 12 -25 12 28 4 c21 2 27
8 23 19 -3 8 -6 17 -6 19 0 11 -41 2 -46 -10z m41 -6 c3 -5 -3 -10 -15 -10
-12 0 -18 5 -15 10 3 6 10 10 15 10 5 0 12 -4 15 -10z"/>
<path d="M2136 229 c4 -13 8 -34 9 -46 0 -35 9 -27 28 25 l17 47 -20 -25 c-15
-20 -20 -21 -20 -8 0 9 -5 20 -11 24 -8 4 -9 -1 -3 -17z"/>
<path d="M2614 224 c10 -41 25 -54 32 -26 4 12 10 19 15 16 5 -3 9 4 9 15 0
28 -14 27 -28 -1 -8 -18 -11 -19 -11 -6 -1 9 -6 20 -12 24 -9 5 -10 -1 -5 -22z"/>
<path d="M2683 223 c-15 -32 -16 -43 -5 -43 5 0 13 16 19 35 13 41 3 46 -14 8z"/>
<path d="M2723 215 c0 -22 2 -30 4 -17 2 12 2 30 0 40 -3 9 -5 -1 -4 -23z"/>
<path d="M3030 235 c0 -8 -5 -15 -11 -15 -6 0 -3 -7 5 -16 15 -14 17 -14 32 0
8 9 11 16 5 16 -6 0 -11 7 -11 15 0 8 -4 15 -10 15 -5 0 -10 -7 -10 -15z"/>
<path d="M3120 235 c0 -8 -5 -15 -11 -15 -6 0 -3 -7 5 -16 15 -14 17 -14 32 0
8 9 11 16 5 16 -6 0 -11 7 -11 15 0 8 -4 15 -10 15 -5 0 -10 -7 -10 -15z"/>
<path d="M3358 243 c-22 -5 -26 -63 -4 -63 9 0 12 8 9 24 -4 20 0 24 27 28 35
5 51 -7 20 -15 -32 -8 -25 -37 9 -37 27 0 28 2 22 33 -6 27 -11 32 -36 33 -17
0 -38 -1 -47 -3z m72 -43 c0 -5 -4 -10 -10 -10 -5 0 -10 5 -10 10 0 6 5 10 10
10 6 0 10 -4 10 -10z"/>
<path d="M3542 241 c-23 -14 -10 -56 18 -58 l25 -3 -25 12 -25 11 23 5 c15 2
22 9 20 19 -4 20 -19 26 -36 14z m23 -11 c3 -5 1 -10 -4 -10 -6 0 -11 5 -11
10 0 6 2 10 4 10 3 0 8 -4 11 -10z"/>
<path d="M558 233 c27 -5 31 -43 5 -43 -15 0 -16 2 -3 10 8 5 12 11 9 14 -2 3
-11 1 -19 -4 -11 -7 -11 -11 -1 -24 8 -9 20 -16 28 -16 10 0 12 -6 8 -21 -5
-15 -4 -19 4 -15 6 4 11 2 11 -5 0 -7 -8 -9 -21 -6 -15 4 -19 3 -12 -4 15 -15
49 -6 44 12 -14 49 -12 67 6 72 16 4 16 5 1 6 -39 2 -15 21 27 21 25 0 45 -4
45 -10 0 -5 -7 -10 -16 -10 -9 0 -28 -9 -42 -21 -24 -18 -24 -21 -6 -18 12 2
35 -8 55 -25 34 -29 34 -29 7 -24 -15 3 -25 1 -22 -3 9 -15 54 -10 54 5 0 8
-4 17 -10 21 -5 3 -7 12 -4 20 4 9 0 12 -14 8 -11 -2 -23 0 -27 7 -4 7 1 14
14 17 12 3 21 12 21 19 0 8 9 14 21 14 13 0 20 -6 18 -17 -3 -38 0 -46 15 -34
11 9 22 7 50 -8 l36 -21 0 40 c0 38 2 40 30 40 23 0 30 -4 30 -20 0 -11 -7
-20 -15 -20 -9 0 -12 6 -8 17 4 11 3 14 -5 9 -20 -12 -14 -32 13 -44 30 -14
35 -15 34 -4 -3 20 3 31 19 35 16 4 16 5 0 6 -31 2 -19 21 13 21 28 0 31 -2
25 -24 -6 -25 8 -44 19 -26 10 15 23 12 28 -7 3 -10 5 -4 6 12 0 17 6 36 13
43 9 9 -46 12 -248 11 -142 -1 -249 -4 -236 -6z m262 -25 c0 -17 -3 -19 -9
-10 -4 8 -17 13 -27 12 -29 -3 -36 -1 -29 10 3 6 19 10 36 10 23 0 29 -4 29
-22z m200 7 c0 -8 -4 -15 -9 -15 -13 0 -22 16 -14 24 11 11 23 6 23 -9z"/>
<path d="M1368 223 c7 -3 16 -2 19 1 4 3 -2 6 -13 5 -11 0 -14 -3 -6 -6z"/>
<path d="M135 209 c-11 -17 1 -21 15 -4 8 9 8 15 2 15 -6 0 -14 -5 -17 -11z"/>
<path d="M415 210 c-3 -5 -1 -10 4 -10 6 0 11 5 11 10 0 6 -2 10 -4 10 -3 0
-8 -4 -11 -10z"/>
<path d="M935 180 c-3 -5 -1 -10 4 -10 6 0 11 5 11 10 0 6 -2 10 -4 10 -3 0
-8 -4 -11 -10z"/>
<path d="M1020 133 c8 -3 22 -11 30 -17 13 -10 13 -9 1 7 -7 9 -21 17 -30 16
-13 0 -14 -1 -1 -6z"/>
</g>
</svg>
